%
M48
M72
T01C0.02362
T02C0.03600
T03C0.04000
T04C0.04724
T05C0.05200
T06C0.05906
%
T01
X182399Y35833
X148590Y67024
X136149Y74583
X154899Y93333
X154899Y105833
X171149Y92083
X177399Y92083
X181149Y109583
X183649Y115833
X176149Y115833
X176149Y129583
X166149Y133333
X156149Y134583
X136149Y124583
X176149Y164583
T02
X101149Y16583
X81149Y27583
T03
X101149Y44583
X101149Y54583
X101149Y64583
X101149Y79583
X101149Y89583
T04
X16070Y54780
X76700Y54780
X56227Y170528
X36542Y170528
T05
X18949Y25833
X38649Y25833
X58349Y25833
X58349Y198333
X38649Y198333
X18949Y198333
T06
X92649Y184583
X92649Y204583
X154649Y204583
X154649Y184583
M30
