G75*
%MOIN*%
%OFA0B0*%
%FSLAX25Y25*%
%IPPOS*%
%LPD*%
%AMOC8*
5,1,8,0,0,1.08239X$1,22.5*
%
%ADD10C,0.00000*%
%ADD11OC8,0.15000*%
%ADD12C,0.05600*%
%ADD13C,0.10000*%
%ADD14OC8,0.11811*%
%ADD15C,0.07800*%
%ADD16C,0.07400*%
%ADD17C,0.03962*%
%ADD18C,0.01600*%
%ADD19C,0.06600*%
%ADD20C,0.05000*%
D10*
X0012329Y0009583D02*
X0198239Y0009583D01*
X0198428Y0009585D01*
X0198617Y0009592D01*
X0198806Y0009604D01*
X0198995Y0009620D01*
X0199183Y0009640D01*
X0199370Y0009665D01*
X0199557Y0009695D01*
X0199744Y0009729D01*
X0199929Y0009767D01*
X0200113Y0009811D01*
X0200296Y0009858D01*
X0200478Y0009910D01*
X0200659Y0009966D01*
X0200838Y0010027D01*
X0201016Y0010092D01*
X0201192Y0010161D01*
X0201366Y0010235D01*
X0201539Y0010312D01*
X0201710Y0010394D01*
X0201878Y0010480D01*
X0202045Y0010570D01*
X0202209Y0010664D01*
X0202371Y0010762D01*
X0202530Y0010864D01*
X0202688Y0010969D01*
X0202842Y0011079D01*
X0202994Y0011192D01*
X0203143Y0011308D01*
X0203289Y0011429D01*
X0203432Y0011552D01*
X0203572Y0011680D01*
X0203709Y0011810D01*
X0203843Y0011944D01*
X0203973Y0012081D01*
X0204101Y0012221D01*
X0204224Y0012364D01*
X0204345Y0012510D01*
X0204461Y0012659D01*
X0204574Y0012811D01*
X0204684Y0012965D01*
X0204789Y0013123D01*
X0204891Y0013282D01*
X0204989Y0013444D01*
X0205083Y0013608D01*
X0205173Y0013775D01*
X0205259Y0013943D01*
X0205341Y0014114D01*
X0205418Y0014287D01*
X0205492Y0014461D01*
X0205561Y0014637D01*
X0205626Y0014815D01*
X0205687Y0014994D01*
X0205743Y0015175D01*
X0205795Y0015357D01*
X0205842Y0015540D01*
X0205886Y0015724D01*
X0205924Y0015909D01*
X0205958Y0016096D01*
X0205988Y0016283D01*
X0206013Y0016470D01*
X0206033Y0016658D01*
X0206049Y0016847D01*
X0206061Y0017036D01*
X0206068Y0017225D01*
X0206070Y0017414D01*
X0206070Y0203613D01*
X0206067Y0203847D01*
X0206059Y0204080D01*
X0206045Y0204314D01*
X0206025Y0204546D01*
X0205999Y0204779D01*
X0205969Y0205010D01*
X0205932Y0205241D01*
X0205890Y0205471D01*
X0205842Y0205700D01*
X0205789Y0205927D01*
X0205730Y0206154D01*
X0205666Y0206378D01*
X0205597Y0206602D01*
X0205522Y0206823D01*
X0205442Y0207042D01*
X0205356Y0207260D01*
X0205265Y0207475D01*
X0205169Y0207688D01*
X0205068Y0207899D01*
X0204962Y0208107D01*
X0204851Y0208313D01*
X0204735Y0208516D01*
X0204614Y0208716D01*
X0204489Y0208913D01*
X0204358Y0209107D01*
X0204223Y0209297D01*
X0204083Y0209485D01*
X0203939Y0209669D01*
X0203791Y0209849D01*
X0203638Y0210026D01*
X0203481Y0210199D01*
X0203320Y0210368D01*
X0203154Y0210534D01*
X0202985Y0210695D01*
X0202812Y0210852D01*
X0202635Y0211005D01*
X0202455Y0211153D01*
X0202271Y0211297D01*
X0202083Y0211437D01*
X0201893Y0211572D01*
X0201699Y0211703D01*
X0201502Y0211828D01*
X0201302Y0211949D01*
X0201099Y0212065D01*
X0200893Y0212176D01*
X0200685Y0212282D01*
X0200474Y0212383D01*
X0200261Y0212479D01*
X0200046Y0212570D01*
X0199828Y0212656D01*
X0199609Y0212736D01*
X0199388Y0212811D01*
X0199164Y0212880D01*
X0198940Y0212944D01*
X0198713Y0213003D01*
X0198486Y0213056D01*
X0198257Y0213104D01*
X0198027Y0213146D01*
X0197796Y0213183D01*
X0197565Y0213213D01*
X0197332Y0213239D01*
X0197100Y0213259D01*
X0196866Y0213273D01*
X0196633Y0213281D01*
X0196399Y0213284D01*
X0011812Y0213284D01*
X0011554Y0213281D01*
X0011297Y0213272D01*
X0011040Y0213256D01*
X0010783Y0213234D01*
X0010527Y0213206D01*
X0010271Y0213172D01*
X0010017Y0213132D01*
X0009763Y0213085D01*
X0009511Y0213033D01*
X0009260Y0212974D01*
X0009011Y0212909D01*
X0008763Y0212839D01*
X0008517Y0212762D01*
X0008273Y0212680D01*
X0008031Y0212591D01*
X0007791Y0212497D01*
X0007554Y0212397D01*
X0007319Y0212291D01*
X0007086Y0212180D01*
X0006857Y0212063D01*
X0006630Y0211940D01*
X0006406Y0211812D01*
X0006186Y0211679D01*
X0005969Y0211540D01*
X0005755Y0211396D01*
X0005544Y0211248D01*
X0005338Y0211094D01*
X0005135Y0210935D01*
X0004936Y0210771D01*
X0004741Y0210602D01*
X0004550Y0210429D01*
X0004364Y0210251D01*
X0004182Y0210069D01*
X0004004Y0209883D01*
X0003831Y0209692D01*
X0003662Y0209497D01*
X0003498Y0209298D01*
X0003339Y0209095D01*
X0003185Y0208889D01*
X0003037Y0208678D01*
X0002893Y0208464D01*
X0002754Y0208247D01*
X0002621Y0208027D01*
X0002493Y0207803D01*
X0002370Y0207576D01*
X0002253Y0207347D01*
X0002142Y0207114D01*
X0002036Y0206879D01*
X0001936Y0206642D01*
X0001842Y0206402D01*
X0001753Y0206160D01*
X0001671Y0205916D01*
X0001594Y0205670D01*
X0001524Y0205422D01*
X0001459Y0205173D01*
X0001400Y0204922D01*
X0001348Y0204670D01*
X0001301Y0204416D01*
X0001261Y0204162D01*
X0001227Y0203906D01*
X0001199Y0203650D01*
X0001177Y0203393D01*
X0001161Y0203136D01*
X0001152Y0202879D01*
X0001149Y0202621D01*
X0001149Y0020764D01*
X0001152Y0020494D01*
X0001162Y0020224D01*
X0001178Y0019954D01*
X0001201Y0019685D01*
X0001231Y0019416D01*
X0001266Y0019149D01*
X0001309Y0018882D01*
X0001357Y0018616D01*
X0001412Y0018352D01*
X0001474Y0018088D01*
X0001542Y0017827D01*
X0001616Y0017567D01*
X0001696Y0017309D01*
X0001783Y0017053D01*
X0001876Y0016800D01*
X0001974Y0016548D01*
X0002079Y0016299D01*
X0002190Y0016053D01*
X0002307Y0015809D01*
X0002430Y0015568D01*
X0002558Y0015331D01*
X0002692Y0015096D01*
X0002832Y0014865D01*
X0002977Y0014637D01*
X0003128Y0014413D01*
X0003284Y0014193D01*
X0003446Y0013976D01*
X0003612Y0013763D01*
X0003784Y0013555D01*
X0003961Y0013350D01*
X0004142Y0013150D01*
X0004329Y0012955D01*
X0004520Y0012764D01*
X0004715Y0012577D01*
X0004915Y0012396D01*
X0005120Y0012219D01*
X0005328Y0012047D01*
X0005541Y0011881D01*
X0005758Y0011719D01*
X0005978Y0011563D01*
X0006202Y0011412D01*
X0006430Y0011267D01*
X0006661Y0011127D01*
X0006896Y0010993D01*
X0007133Y0010865D01*
X0007374Y0010742D01*
X0007618Y0010625D01*
X0007864Y0010514D01*
X0008113Y0010409D01*
X0008365Y0010311D01*
X0008618Y0010218D01*
X0008874Y0010131D01*
X0009132Y0010051D01*
X0009392Y0009977D01*
X0009653Y0009909D01*
X0009917Y0009847D01*
X0010181Y0009792D01*
X0010447Y0009744D01*
X0010714Y0009701D01*
X0010981Y0009666D01*
X0011250Y0009636D01*
X0011519Y0009613D01*
X0011789Y0009597D01*
X0012059Y0009587D01*
X0012329Y0009584D01*
D11*
X0092649Y0184583D03*
X0092649Y0204583D03*
X0154649Y0204583D03*
X0154649Y0184583D03*
D12*
X0081149Y0030383D02*
X0081149Y0024783D01*
X0101149Y0019383D02*
X0101149Y0013783D01*
D13*
X0066227Y0170528D02*
X0056227Y0170528D01*
X0036542Y0170528D02*
X0026542Y0170528D01*
D14*
X0016070Y0054780D03*
X0076700Y0054780D03*
D15*
X0058349Y0029733D02*
X0058349Y0021933D01*
X0038649Y0021933D02*
X0038649Y0029733D01*
X0018949Y0029733D02*
X0018949Y0021933D01*
X0018949Y0194433D02*
X0018949Y0202233D01*
X0038649Y0202233D02*
X0038649Y0194433D01*
X0058349Y0194433D02*
X0058349Y0202233D01*
D16*
X0101149Y0089583D03*
X0101149Y0079583D03*
X0101149Y0064583D03*
X0101149Y0054583D03*
X0101149Y0044583D03*
D17*
X0136149Y0074583D03*
X0148590Y0067024D03*
X0154899Y0093333D03*
X0154899Y0105833D03*
X0171149Y0092083D03*
X0177399Y0092083D03*
X0181149Y0109583D03*
X0183649Y0115833D03*
X0176149Y0115833D03*
X0176149Y0129583D03*
X0166149Y0133333D03*
X0156149Y0134583D03*
X0136149Y0124583D03*
X0176149Y0164583D03*
X0182399Y0035833D03*
D18*
X0181149Y0037083D01*
X0181149Y0109583D01*
X0177949Y0106587D02*
X0177949Y0036447D01*
X0178018Y0036280D01*
X0178018Y0034962D01*
X0178685Y0033352D01*
X0179917Y0032119D01*
X0181527Y0031452D01*
X0183270Y0031452D01*
X0184880Y0032119D01*
X0186113Y0033352D01*
X0186780Y0034962D01*
X0186780Y0036705D01*
X0186113Y0038315D01*
X0184880Y0039547D01*
X0184349Y0039768D01*
X0184349Y0106587D01*
X0184863Y0107102D01*
X0185530Y0108712D01*
X0185530Y0110455D01*
X0185029Y0111663D01*
X0186130Y0112119D01*
X0187363Y0113352D01*
X0188030Y0114962D01*
X0188030Y0116705D01*
X0187363Y0118315D01*
X0186849Y0118829D01*
X0186849Y0132720D01*
X0186362Y0133896D01*
X0183862Y0136396D01*
X0182961Y0137296D01*
X0181785Y0137783D01*
X0166762Y0137783D01*
X0166596Y0137714D01*
X0165277Y0137714D01*
X0163667Y0137047D01*
X0162435Y0135815D01*
X0161768Y0134205D01*
X0161768Y0132462D01*
X0162435Y0130852D01*
X0162949Y0130337D01*
X0162949Y0109659D01*
X0162323Y0109033D01*
X0157895Y0109033D01*
X0157380Y0109547D01*
X0155770Y0110214D01*
X0154027Y0110214D01*
X0152417Y0109547D01*
X0151185Y0108315D01*
X0150518Y0106705D01*
X0150518Y0104962D01*
X0151185Y0103352D01*
X0152417Y0102119D01*
X0154027Y0101452D01*
X0155770Y0101452D01*
X0157380Y0102119D01*
X0157895Y0102633D01*
X0164285Y0102633D01*
X0165461Y0103120D01*
X0167961Y0105620D01*
X0167961Y0105620D01*
X0168862Y0106521D01*
X0169349Y0107697D01*
X0169349Y0130337D01*
X0169863Y0130852D01*
X0170083Y0131383D01*
X0172152Y0131383D01*
X0171768Y0130455D01*
X0171768Y0128712D01*
X0172435Y0127102D01*
X0172949Y0126587D01*
X0172949Y0118829D01*
X0172435Y0118315D01*
X0171768Y0116705D01*
X0171768Y0114962D01*
X0172435Y0113352D01*
X0173667Y0112119D01*
X0175277Y0111452D01*
X0177020Y0111452D01*
X0177214Y0111533D01*
X0176768Y0110455D01*
X0176768Y0108712D01*
X0177435Y0107102D01*
X0177949Y0106587D01*
X0177444Y0107093D02*
X0169098Y0107093D01*
X0169349Y0108691D02*
X0176776Y0108691D01*
X0176768Y0110290D02*
X0169349Y0110290D01*
X0169349Y0111888D02*
X0174225Y0111888D01*
X0172379Y0113487D02*
X0169349Y0113487D01*
X0169349Y0115085D02*
X0171768Y0115085D01*
X0171768Y0116684D02*
X0169349Y0116684D01*
X0169349Y0118282D02*
X0172421Y0118282D01*
X0172949Y0119881D02*
X0169349Y0119881D01*
X0169349Y0121479D02*
X0172949Y0121479D01*
X0172949Y0123078D02*
X0169349Y0123078D01*
X0169349Y0124676D02*
X0172949Y0124676D01*
X0172949Y0126275D02*
X0169349Y0126275D01*
X0169349Y0127873D02*
X0172115Y0127873D01*
X0171768Y0129472D02*
X0169349Y0129472D01*
X0169953Y0131070D02*
X0172023Y0131070D01*
X0176149Y0129583D02*
X0176149Y0115833D01*
X0183649Y0115833D02*
X0183649Y0132083D01*
X0181149Y0134583D01*
X0167399Y0134583D01*
X0166149Y0133333D01*
X0166149Y0108333D01*
X0163649Y0105833D01*
X0154899Y0105833D01*
X0150959Y0103895D02*
X0066149Y0103895D01*
X0066149Y0102297D02*
X0152239Y0102297D01*
X0150518Y0105494D02*
X0066149Y0105494D01*
X0066149Y0107093D02*
X0150678Y0107093D01*
X0151561Y0108691D02*
X0066149Y0108691D01*
X0066149Y0110290D02*
X0162949Y0110290D01*
X0162949Y0111888D02*
X0066149Y0111888D01*
X0066149Y0113487D02*
X0162949Y0113487D01*
X0162949Y0115085D02*
X0066149Y0115085D01*
X0066149Y0116684D02*
X0162949Y0116684D01*
X0162949Y0118282D02*
X0066149Y0118282D01*
X0066149Y0119881D02*
X0162949Y0119881D01*
X0162949Y0121479D02*
X0066149Y0121479D01*
X0066149Y0123078D02*
X0162949Y0123078D01*
X0162949Y0124676D02*
X0066149Y0124676D01*
X0066149Y0126275D02*
X0162949Y0126275D01*
X0162949Y0127873D02*
X0066149Y0127873D01*
X0066149Y0129472D02*
X0162949Y0129472D01*
X0162344Y0131070D02*
X0158831Y0131070D01*
X0158630Y0130869D02*
X0159863Y0132102D01*
X0160530Y0133712D01*
X0160530Y0134439D01*
X0177961Y0151870D01*
X0178862Y0152771D01*
X0179349Y0153947D01*
X0179349Y0161588D01*
X0179863Y0162102D01*
X0180530Y0163712D01*
X0180530Y0165455D01*
X0179863Y0167065D01*
X0178630Y0168297D01*
X0177020Y0168964D01*
X0175277Y0168964D01*
X0173667Y0168297D01*
X0172435Y0167065D01*
X0171768Y0165455D01*
X0171768Y0163712D01*
X0172435Y0162102D01*
X0172949Y0161588D01*
X0172949Y0155909D01*
X0156004Y0138964D01*
X0155277Y0138964D01*
X0153667Y0138297D01*
X0152435Y0137065D01*
X0151768Y0135455D01*
X0151768Y0133712D01*
X0152435Y0132102D01*
X0153667Y0130869D01*
X0155277Y0130202D01*
X0157020Y0130202D01*
X0158630Y0130869D01*
X0160098Y0132669D02*
X0161768Y0132669D01*
X0161793Y0134267D02*
X0160530Y0134267D01*
X0161957Y0135866D02*
X0162485Y0135866D01*
X0163555Y0137464D02*
X0164673Y0137464D01*
X0165154Y0139063D02*
X0201270Y0139063D01*
X0201270Y0140661D02*
X0166752Y0140661D01*
X0168351Y0142260D02*
X0201270Y0142260D01*
X0201270Y0143858D02*
X0169949Y0143858D01*
X0171548Y0145457D02*
X0201270Y0145457D01*
X0201270Y0147055D02*
X0173146Y0147055D01*
X0174745Y0148654D02*
X0201270Y0148654D01*
X0201270Y0150252D02*
X0176343Y0150252D01*
X0177942Y0151851D02*
X0201270Y0151851D01*
X0201270Y0153449D02*
X0179143Y0153449D01*
X0179349Y0155048D02*
X0201270Y0155048D01*
X0201270Y0156646D02*
X0179349Y0156646D01*
X0179349Y0158245D02*
X0201270Y0158245D01*
X0201270Y0159843D02*
X0179349Y0159843D01*
X0179349Y0161442D02*
X0201270Y0161442D01*
X0201270Y0163040D02*
X0180252Y0163040D01*
X0180530Y0164639D02*
X0201270Y0164639D01*
X0201270Y0166237D02*
X0180206Y0166237D01*
X0179092Y0167836D02*
X0201270Y0167836D01*
X0201270Y0169434D02*
X0096000Y0169434D01*
X0094401Y0167836D02*
X0173205Y0167836D01*
X0172092Y0166237D02*
X0092803Y0166237D01*
X0091204Y0164639D02*
X0171768Y0164639D01*
X0172046Y0163040D02*
X0089606Y0163040D01*
X0088007Y0161442D02*
X0172949Y0161442D01*
X0172949Y0159843D02*
X0086409Y0159843D01*
X0084810Y0158245D02*
X0172949Y0158245D01*
X0172949Y0156646D02*
X0083212Y0156646D01*
X0081613Y0155048D02*
X0172088Y0155048D01*
X0170489Y0153449D02*
X0070015Y0153449D01*
X0071149Y0154583D02*
X0081149Y0154583D01*
X0101149Y0174583D01*
X0136149Y0174583D01*
X0141149Y0169583D01*
X0156149Y0169583D01*
X0166149Y0179583D01*
X0166149Y0208484D01*
X0196399Y0208484D01*
X0197035Y0208442D01*
X0198263Y0208113D01*
X0199364Y0207478D01*
X0200263Y0206578D01*
X0200899Y0205477D01*
X0201228Y0204249D01*
X0201270Y0203613D01*
X0201270Y0017414D01*
X0201233Y0016940D01*
X0200940Y0016038D01*
X0200382Y0015271D01*
X0199615Y0014714D01*
X0198713Y0014421D01*
X0198239Y0014383D01*
X0111149Y0014383D01*
X0111149Y0024583D01*
X0091149Y0044583D01*
X0066149Y0044583D01*
X0066149Y0149583D01*
X0071149Y0154583D01*
X0068416Y0151851D02*
X0168891Y0151851D01*
X0167292Y0150252D02*
X0066818Y0150252D01*
X0066149Y0148654D02*
X0165694Y0148654D01*
X0164095Y0147055D02*
X0066149Y0147055D01*
X0066149Y0145457D02*
X0162497Y0145457D01*
X0160898Y0143858D02*
X0066149Y0143858D01*
X0066149Y0142260D02*
X0159300Y0142260D01*
X0157701Y0140661D02*
X0066149Y0140661D01*
X0066149Y0139063D02*
X0156103Y0139063D01*
X0152834Y0137464D02*
X0066149Y0137464D01*
X0066149Y0135866D02*
X0151938Y0135866D01*
X0151768Y0134267D02*
X0066149Y0134267D01*
X0066149Y0132669D02*
X0152200Y0132669D01*
X0153466Y0131070D02*
X0066149Y0131070D01*
X0066149Y0100698D02*
X0177949Y0100698D01*
X0177949Y0099100D02*
X0066149Y0099100D01*
X0066149Y0097501D02*
X0153513Y0097501D01*
X0154027Y0097714D02*
X0152417Y0097047D01*
X0151185Y0095815D01*
X0150518Y0094205D01*
X0150518Y0092462D01*
X0151185Y0090852D01*
X0151699Y0090337D01*
X0151699Y0072159D01*
X0150511Y0070971D01*
X0149461Y0071405D01*
X0147718Y0071405D01*
X0146108Y0070738D01*
X0144876Y0069506D01*
X0144209Y0067896D01*
X0144209Y0066153D01*
X0144876Y0064543D01*
X0146108Y0063310D01*
X0147380Y0062783D01*
X0142474Y0062783D01*
X0139349Y0065909D01*
X0139349Y0071588D01*
X0139863Y0072102D01*
X0140530Y0073712D01*
X0140530Y0075455D01*
X0139863Y0077065D01*
X0138630Y0078297D01*
X0137020Y0078964D01*
X0135277Y0078964D01*
X0133667Y0078297D01*
X0132435Y0077065D01*
X0131768Y0075455D01*
X0131768Y0073712D01*
X0132435Y0072102D01*
X0132949Y0071588D01*
X0132949Y0063947D01*
X0133436Y0062771D01*
X0138436Y0057771D01*
X0139336Y0056870D01*
X0140512Y0056383D01*
X0161785Y0056383D01*
X0162961Y0056870D01*
X0172961Y0066870D01*
X0173862Y0067771D01*
X0174349Y0068947D01*
X0174349Y0089087D01*
X0174863Y0089602D01*
X0175530Y0091212D01*
X0175530Y0092955D01*
X0174863Y0094565D01*
X0173630Y0095797D01*
X0172020Y0096464D01*
X0170277Y0096464D01*
X0168667Y0095797D01*
X0167435Y0094565D01*
X0166768Y0092955D01*
X0166768Y0091212D01*
X0167435Y0089602D01*
X0167949Y0089087D01*
X0167949Y0070909D01*
X0159823Y0062783D01*
X0149799Y0062783D01*
X0151071Y0063310D01*
X0151585Y0063824D01*
X0151726Y0063824D01*
X0152902Y0064311D01*
X0156711Y0068120D01*
X0157612Y0069021D01*
X0158099Y0070197D01*
X0158099Y0090337D01*
X0158613Y0090852D01*
X0159280Y0092462D01*
X0159280Y0094205D01*
X0158613Y0095815D01*
X0157380Y0097047D01*
X0155770Y0097714D01*
X0154027Y0097714D01*
X0156284Y0097501D02*
X0177949Y0097501D01*
X0177399Y0098333D02*
X0176149Y0099583D01*
X0136149Y0099583D01*
X0136149Y0082083D01*
X0133649Y0079583D01*
X0101149Y0079583D01*
X0101349Y0079383D02*
X0101349Y0074083D01*
X0101582Y0074083D01*
X0102437Y0074219D01*
X0103260Y0074486D01*
X0104031Y0074879D01*
X0104732Y0075388D01*
X0105344Y0076000D01*
X0105853Y0076701D01*
X0106246Y0077472D01*
X0106513Y0078295D01*
X0106649Y0079150D01*
X0106649Y0079383D01*
X0101349Y0079383D01*
X0101349Y0079783D01*
X0106649Y0079783D01*
X0106649Y0080016D01*
X0106513Y0080871D01*
X0106246Y0081695D01*
X0105853Y0082466D01*
X0105344Y0083166D01*
X0104732Y0083778D01*
X0104130Y0084216D01*
X0104604Y0084412D01*
X0106320Y0086128D01*
X0107249Y0088370D01*
X0107249Y0090797D01*
X0106320Y0093039D01*
X0104604Y0094755D01*
X0102362Y0095683D01*
X0099935Y0095683D01*
X0097693Y0094755D01*
X0095977Y0093039D01*
X0095049Y0090797D01*
X0095049Y0088370D01*
X0095977Y0086128D01*
X0097693Y0084412D01*
X0098167Y0084216D01*
X0097566Y0083778D01*
X0096954Y0083166D01*
X0096445Y0082466D01*
X0096052Y0081695D01*
X0095784Y0080871D01*
X0095649Y0080016D01*
X0095649Y0079783D01*
X0100949Y0079783D01*
X0100949Y0079383D01*
X0101349Y0079383D01*
X0100949Y0079383D02*
X0100949Y0074083D01*
X0100716Y0074083D01*
X0099861Y0074219D01*
X0099037Y0074486D01*
X0098266Y0074879D01*
X0097566Y0075388D01*
X0096954Y0076000D01*
X0096445Y0076701D01*
X0096052Y0077472D01*
X0095784Y0078295D01*
X0095649Y0079150D01*
X0095649Y0079383D01*
X0100949Y0079383D01*
X0100949Y0078319D02*
X0101349Y0078319D01*
X0101349Y0076721D02*
X0100949Y0076721D01*
X0100949Y0075122D02*
X0101349Y0075122D01*
X0104366Y0075122D02*
X0131768Y0075122D01*
X0131845Y0073524D02*
X0066149Y0073524D01*
X0066149Y0075122D02*
X0097932Y0075122D01*
X0096434Y0076721D02*
X0066149Y0076721D01*
X0066149Y0078319D02*
X0095780Y0078319D01*
X0095649Y0079918D02*
X0066149Y0079918D01*
X0066149Y0081516D02*
X0095994Y0081516D01*
X0096916Y0083115D02*
X0066149Y0083115D01*
X0066149Y0084713D02*
X0097392Y0084713D01*
X0095901Y0086312D02*
X0066149Y0086312D01*
X0066149Y0087910D02*
X0095239Y0087910D01*
X0095049Y0089509D02*
X0066149Y0089509D01*
X0066149Y0091107D02*
X0095177Y0091107D01*
X0095840Y0092706D02*
X0066149Y0092706D01*
X0066149Y0094304D02*
X0097243Y0094304D01*
X0105054Y0094304D02*
X0150559Y0094304D01*
X0150518Y0092706D02*
X0106458Y0092706D01*
X0107120Y0091107D02*
X0151079Y0091107D01*
X0151699Y0089509D02*
X0107249Y0089509D01*
X0107058Y0087910D02*
X0151699Y0087910D01*
X0151699Y0086312D02*
X0106396Y0086312D01*
X0104905Y0084713D02*
X0151699Y0084713D01*
X0151699Y0083115D02*
X0105381Y0083115D01*
X0106304Y0081516D02*
X0151699Y0081516D01*
X0151699Y0079918D02*
X0106649Y0079918D01*
X0106517Y0078319D02*
X0133720Y0078319D01*
X0132292Y0076721D02*
X0105863Y0076721D01*
X0103260Y0069680D02*
X0102437Y0069948D01*
X0101582Y0070083D01*
X0101349Y0070083D01*
X0101349Y0064783D01*
X0106649Y0064783D01*
X0106649Y0065016D01*
X0106513Y0065871D01*
X0106246Y0066695D01*
X0105853Y0067466D01*
X0105344Y0068166D01*
X0104732Y0068778D01*
X0104031Y0069287D01*
X0103260Y0069680D01*
X0104782Y0068728D02*
X0132949Y0068728D01*
X0132949Y0067130D02*
X0106024Y0067130D01*
X0106567Y0065531D02*
X0132949Y0065531D01*
X0132955Y0063933D02*
X0106614Y0063933D01*
X0106649Y0064150D02*
X0106649Y0064383D01*
X0101349Y0064383D01*
X0101349Y0064783D01*
X0100949Y0064783D01*
X0100949Y0064383D01*
X0095649Y0064383D01*
X0095649Y0064150D01*
X0095784Y0063295D01*
X0096052Y0062472D01*
X0096445Y0061701D01*
X0096954Y0061000D01*
X0097566Y0060388D01*
X0098167Y0059951D01*
X0097693Y0059755D01*
X0095977Y0058039D01*
X0095049Y0055797D01*
X0095049Y0053370D01*
X0095977Y0051128D01*
X0097522Y0049583D01*
X0095977Y0048039D01*
X0095049Y0045797D01*
X0095049Y0043370D01*
X0095977Y0041128D01*
X0097693Y0039412D01*
X0099935Y0038483D01*
X0102362Y0038483D01*
X0104604Y0039412D01*
X0106320Y0041128D01*
X0107249Y0043370D01*
X0107249Y0045797D01*
X0106320Y0048039D01*
X0104775Y0049583D01*
X0106320Y0051128D01*
X0107249Y0053370D01*
X0107249Y0055797D01*
X0106320Y0058039D01*
X0104604Y0059755D01*
X0104130Y0059951D01*
X0104732Y0060388D01*
X0105344Y0061000D01*
X0105853Y0061701D01*
X0106246Y0062472D01*
X0106513Y0063295D01*
X0106649Y0064150D01*
X0106175Y0062334D02*
X0133872Y0062334D01*
X0135471Y0060736D02*
X0105079Y0060736D01*
X0105222Y0059137D02*
X0137069Y0059137D01*
X0138668Y0057539D02*
X0106527Y0057539D01*
X0107189Y0055940D02*
X0177949Y0055940D01*
X0177949Y0054342D02*
X0107249Y0054342D01*
X0106989Y0052743D02*
X0177949Y0052743D01*
X0177949Y0051145D02*
X0106327Y0051145D01*
X0104813Y0049546D02*
X0177949Y0049546D01*
X0177949Y0047948D02*
X0106358Y0047948D01*
X0107020Y0046349D02*
X0177949Y0046349D01*
X0177949Y0044751D02*
X0107249Y0044751D01*
X0107158Y0043152D02*
X0177949Y0043152D01*
X0177949Y0041554D02*
X0106496Y0041554D01*
X0105147Y0039955D02*
X0177949Y0039955D01*
X0177949Y0038357D02*
X0097375Y0038357D01*
X0097150Y0039955D02*
X0095777Y0039955D01*
X0095801Y0041554D02*
X0094178Y0041554D01*
X0095139Y0043152D02*
X0092580Y0043152D01*
X0095049Y0044751D02*
X0066149Y0044751D01*
X0066149Y0046349D02*
X0095277Y0046349D01*
X0095940Y0047948D02*
X0080765Y0047948D01*
X0079892Y0047075D02*
X0084405Y0051588D01*
X0084405Y0054399D01*
X0077081Y0054399D01*
X0077081Y0047075D01*
X0079892Y0047075D01*
X0077081Y0047948D02*
X0076319Y0047948D01*
X0076319Y0047075D02*
X0076319Y0054399D01*
X0077081Y0054399D01*
X0077081Y0055161D01*
X0084405Y0055161D01*
X0084405Y0057972D01*
X0079892Y0062486D01*
X0077081Y0062486D01*
X0077081Y0055161D01*
X0076319Y0055161D01*
X0076319Y0054399D01*
X0068994Y0054399D01*
X0068994Y0051588D01*
X0073508Y0047075D01*
X0076319Y0047075D01*
X0076319Y0049546D02*
X0077081Y0049546D01*
X0077081Y0051145D02*
X0076319Y0051145D01*
X0076319Y0052743D02*
X0077081Y0052743D01*
X0077081Y0054342D02*
X0076319Y0054342D01*
X0076319Y0055161D02*
X0068994Y0055161D01*
X0068994Y0057972D01*
X0073508Y0062486D01*
X0076319Y0062486D01*
X0076319Y0055161D01*
X0076319Y0055940D02*
X0077081Y0055940D01*
X0077081Y0057539D02*
X0076319Y0057539D01*
X0076319Y0059137D02*
X0077081Y0059137D01*
X0077081Y0060736D02*
X0076319Y0060736D01*
X0076319Y0062334D02*
X0077081Y0062334D01*
X0080043Y0062334D02*
X0096122Y0062334D01*
X0095683Y0063933D02*
X0066149Y0063933D01*
X0066149Y0065531D02*
X0095730Y0065531D01*
X0095784Y0065871D02*
X0095649Y0065016D01*
X0095649Y0064783D01*
X0100949Y0064783D01*
X0100949Y0070083D01*
X0100716Y0070083D01*
X0099861Y0069948D01*
X0099037Y0069680D01*
X0098266Y0069287D01*
X0097566Y0068778D01*
X0096954Y0068166D01*
X0096445Y0067466D01*
X0096052Y0066695D01*
X0095784Y0065871D01*
X0096273Y0067130D02*
X0066149Y0067130D01*
X0066149Y0068728D02*
X0097515Y0068728D01*
X0100949Y0068728D02*
X0101349Y0068728D01*
X0101349Y0067130D02*
X0100949Y0067130D01*
X0100949Y0065531D02*
X0101349Y0065531D01*
X0097218Y0060736D02*
X0081642Y0060736D01*
X0083240Y0059137D02*
X0097076Y0059137D01*
X0095770Y0057539D02*
X0084405Y0057539D01*
X0084405Y0055940D02*
X0095108Y0055940D01*
X0095049Y0054342D02*
X0084405Y0054342D01*
X0084405Y0052743D02*
X0095308Y0052743D01*
X0095970Y0051145D02*
X0083962Y0051145D01*
X0082363Y0049546D02*
X0097485Y0049546D01*
X0098974Y0036758D02*
X0177949Y0036758D01*
X0178018Y0035160D02*
X0100573Y0035160D01*
X0102171Y0033561D02*
X0178598Y0033561D01*
X0180295Y0031962D02*
X0103770Y0031962D01*
X0105368Y0030364D02*
X0201270Y0030364D01*
X0201270Y0031962D02*
X0184502Y0031962D01*
X0186200Y0033561D02*
X0201270Y0033561D01*
X0201270Y0035160D02*
X0186780Y0035160D01*
X0186758Y0036758D02*
X0201270Y0036758D01*
X0201270Y0038357D02*
X0186071Y0038357D01*
X0184349Y0039955D02*
X0201270Y0039955D01*
X0201270Y0041554D02*
X0184349Y0041554D01*
X0184349Y0043152D02*
X0201270Y0043152D01*
X0201270Y0044751D02*
X0184349Y0044751D01*
X0184349Y0046349D02*
X0201270Y0046349D01*
X0201270Y0047948D02*
X0184349Y0047948D01*
X0184349Y0049546D02*
X0201270Y0049546D01*
X0201270Y0051145D02*
X0184349Y0051145D01*
X0184349Y0052743D02*
X0201270Y0052743D01*
X0201270Y0054342D02*
X0184349Y0054342D01*
X0184349Y0055940D02*
X0201270Y0055940D01*
X0201270Y0057539D02*
X0184349Y0057539D01*
X0184349Y0059137D02*
X0201270Y0059137D01*
X0201270Y0060736D02*
X0184349Y0060736D01*
X0184349Y0062334D02*
X0201270Y0062334D01*
X0201270Y0063933D02*
X0184349Y0063933D01*
X0184349Y0065531D02*
X0201270Y0065531D01*
X0201270Y0067130D02*
X0184349Y0067130D01*
X0184349Y0068728D02*
X0201270Y0068728D01*
X0201270Y0070327D02*
X0184349Y0070327D01*
X0184349Y0071925D02*
X0201270Y0071925D01*
X0201270Y0073524D02*
X0184349Y0073524D01*
X0184349Y0075122D02*
X0201270Y0075122D01*
X0201270Y0076721D02*
X0184349Y0076721D01*
X0184349Y0078319D02*
X0201270Y0078319D01*
X0201270Y0079918D02*
X0184349Y0079918D01*
X0184349Y0081516D02*
X0201270Y0081516D01*
X0201270Y0083115D02*
X0184349Y0083115D01*
X0184349Y0084713D02*
X0201270Y0084713D01*
X0201270Y0086312D02*
X0184349Y0086312D01*
X0184349Y0087910D02*
X0201270Y0087910D01*
X0201270Y0089509D02*
X0184349Y0089509D01*
X0184349Y0091107D02*
X0201270Y0091107D01*
X0201270Y0092706D02*
X0184349Y0092706D01*
X0184349Y0094304D02*
X0201270Y0094304D01*
X0201270Y0095903D02*
X0184349Y0095903D01*
X0184349Y0097501D02*
X0201270Y0097501D01*
X0201270Y0099100D02*
X0184349Y0099100D01*
X0184349Y0100698D02*
X0201270Y0100698D01*
X0201270Y0102297D02*
X0184349Y0102297D01*
X0184349Y0103895D02*
X0201270Y0103895D01*
X0201270Y0105494D02*
X0184349Y0105494D01*
X0184854Y0107093D02*
X0201270Y0107093D01*
X0201270Y0108691D02*
X0185521Y0108691D01*
X0185530Y0110290D02*
X0201270Y0110290D01*
X0201270Y0111888D02*
X0185572Y0111888D01*
X0187419Y0113487D02*
X0201270Y0113487D01*
X0201270Y0115085D02*
X0188030Y0115085D01*
X0188030Y0116684D02*
X0201270Y0116684D01*
X0201270Y0118282D02*
X0187376Y0118282D01*
X0186849Y0119881D02*
X0201270Y0119881D01*
X0201270Y0121479D02*
X0186849Y0121479D01*
X0186849Y0123078D02*
X0201270Y0123078D01*
X0201270Y0124676D02*
X0186849Y0124676D01*
X0186849Y0126275D02*
X0201270Y0126275D01*
X0201270Y0127873D02*
X0186849Y0127873D01*
X0186849Y0129472D02*
X0201270Y0129472D01*
X0201270Y0131070D02*
X0186849Y0131070D01*
X0186849Y0132669D02*
X0201270Y0132669D01*
X0201270Y0134267D02*
X0185990Y0134267D01*
X0184392Y0135866D02*
X0201270Y0135866D01*
X0201270Y0137464D02*
X0182556Y0137464D01*
X0176149Y0154583D02*
X0176149Y0164583D01*
X0176149Y0154583D02*
X0156149Y0134583D01*
X0136149Y0124583D02*
X0136149Y0099583D01*
X0151272Y0095903D02*
X0066149Y0095903D01*
X0066149Y0071925D02*
X0132611Y0071925D01*
X0132949Y0070327D02*
X0066149Y0070327D01*
X0066149Y0062334D02*
X0073357Y0062334D01*
X0071758Y0060736D02*
X0066149Y0060736D01*
X0066149Y0059137D02*
X0070160Y0059137D01*
X0068994Y0057539D02*
X0066149Y0057539D01*
X0066149Y0055940D02*
X0068994Y0055940D01*
X0068994Y0054342D02*
X0066149Y0054342D01*
X0066149Y0052743D02*
X0068994Y0052743D01*
X0069438Y0051145D02*
X0066149Y0051145D01*
X0066149Y0049546D02*
X0071037Y0049546D01*
X0072635Y0047948D02*
X0066149Y0047948D01*
X0106967Y0028765D02*
X0201270Y0028765D01*
X0201270Y0027167D02*
X0108565Y0027167D01*
X0110164Y0025568D02*
X0201270Y0025568D01*
X0201270Y0023970D02*
X0111149Y0023970D01*
X0111149Y0022371D02*
X0201270Y0022371D01*
X0201270Y0020773D02*
X0111149Y0020773D01*
X0111149Y0019174D02*
X0201270Y0019174D01*
X0201270Y0017576D02*
X0111149Y0017576D01*
X0111149Y0015977D02*
X0200895Y0015977D01*
X0177949Y0057539D02*
X0163630Y0057539D01*
X0165228Y0059137D02*
X0177949Y0059137D01*
X0177949Y0060736D02*
X0166827Y0060736D01*
X0168425Y0062334D02*
X0177949Y0062334D01*
X0177949Y0063933D02*
X0170024Y0063933D01*
X0171622Y0065531D02*
X0177949Y0065531D01*
X0177949Y0067130D02*
X0173221Y0067130D01*
X0174258Y0068728D02*
X0177949Y0068728D01*
X0177949Y0070327D02*
X0174349Y0070327D01*
X0174349Y0071925D02*
X0177949Y0071925D01*
X0177949Y0073524D02*
X0174349Y0073524D01*
X0174349Y0075122D02*
X0177949Y0075122D01*
X0177949Y0076721D02*
X0174349Y0076721D01*
X0174349Y0078319D02*
X0177949Y0078319D01*
X0177949Y0079918D02*
X0174349Y0079918D01*
X0174349Y0081516D02*
X0177949Y0081516D01*
X0177949Y0083115D02*
X0174349Y0083115D01*
X0174349Y0084713D02*
X0177949Y0084713D01*
X0177949Y0086312D02*
X0174349Y0086312D01*
X0174349Y0087910D02*
X0177949Y0087910D01*
X0177949Y0089509D02*
X0174770Y0089509D01*
X0175487Y0091107D02*
X0177949Y0091107D01*
X0177399Y0092083D02*
X0177399Y0098333D01*
X0177949Y0095903D02*
X0173376Y0095903D01*
X0174971Y0094304D02*
X0177949Y0094304D01*
X0177949Y0092706D02*
X0175530Y0092706D01*
X0171149Y0092083D02*
X0171149Y0069583D01*
X0161149Y0059583D01*
X0141149Y0059583D01*
X0136149Y0064583D01*
X0136149Y0074583D01*
X0138578Y0078319D02*
X0151699Y0078319D01*
X0151699Y0076721D02*
X0140005Y0076721D01*
X0140530Y0075122D02*
X0151699Y0075122D01*
X0151699Y0073524D02*
X0140452Y0073524D01*
X0139686Y0071925D02*
X0151465Y0071925D01*
X0154899Y0070833D02*
X0154899Y0093333D01*
X0158719Y0091107D02*
X0166811Y0091107D01*
X0166768Y0092706D02*
X0159280Y0092706D01*
X0159239Y0094304D02*
X0167327Y0094304D01*
X0168922Y0095903D02*
X0158525Y0095903D01*
X0158099Y0089509D02*
X0167527Y0089509D01*
X0167949Y0087910D02*
X0158099Y0087910D01*
X0158099Y0086312D02*
X0167949Y0086312D01*
X0167949Y0084713D02*
X0158099Y0084713D01*
X0158099Y0083115D02*
X0167949Y0083115D01*
X0167949Y0081516D02*
X0158099Y0081516D01*
X0158099Y0079918D02*
X0167949Y0079918D01*
X0167949Y0078319D02*
X0158099Y0078319D01*
X0158099Y0076721D02*
X0167949Y0076721D01*
X0167949Y0075122D02*
X0158099Y0075122D01*
X0158099Y0073524D02*
X0167949Y0073524D01*
X0167949Y0071925D02*
X0158099Y0071925D01*
X0158099Y0070327D02*
X0167367Y0070327D01*
X0165768Y0068728D02*
X0157319Y0068728D01*
X0155721Y0067130D02*
X0164170Y0067130D01*
X0162571Y0065531D02*
X0154122Y0065531D01*
X0151988Y0063933D02*
X0160973Y0063933D01*
X0154899Y0070833D02*
X0151090Y0067024D01*
X0148590Y0067024D01*
X0145485Y0063933D02*
X0141325Y0063933D01*
X0139726Y0065531D02*
X0144466Y0065531D01*
X0144209Y0067130D02*
X0139349Y0067130D01*
X0139349Y0068728D02*
X0144553Y0068728D01*
X0145696Y0070327D02*
X0139349Y0070327D01*
X0157558Y0102297D02*
X0177949Y0102297D01*
X0177949Y0103895D02*
X0166236Y0103895D01*
X0167835Y0105494D02*
X0177949Y0105494D01*
X0157598Y0171033D02*
X0201270Y0171033D01*
X0201270Y0172631D02*
X0159197Y0172631D01*
X0160795Y0174230D02*
X0201270Y0174230D01*
X0201270Y0175829D02*
X0162394Y0175829D01*
X0163992Y0177427D02*
X0201270Y0177427D01*
X0201270Y0179026D02*
X0165591Y0179026D01*
X0166149Y0180624D02*
X0201270Y0180624D01*
X0201270Y0182223D02*
X0166149Y0182223D01*
X0166149Y0183821D02*
X0201270Y0183821D01*
X0201270Y0185420D02*
X0166149Y0185420D01*
X0166149Y0187018D02*
X0201270Y0187018D01*
X0201270Y0188617D02*
X0166149Y0188617D01*
X0166149Y0190215D02*
X0201270Y0190215D01*
X0201270Y0191814D02*
X0166149Y0191814D01*
X0166149Y0193412D02*
X0201270Y0193412D01*
X0201270Y0195011D02*
X0166149Y0195011D01*
X0166149Y0196609D02*
X0201270Y0196609D01*
X0201270Y0198208D02*
X0166149Y0198208D01*
X0166149Y0199806D02*
X0201270Y0199806D01*
X0201270Y0201405D02*
X0166149Y0201405D01*
X0166149Y0203003D02*
X0201270Y0203003D01*
X0201134Y0204602D02*
X0166149Y0204602D01*
X0166149Y0206200D02*
X0200482Y0206200D01*
X0198808Y0207799D02*
X0166149Y0207799D01*
X0197035Y0208442D02*
X0197035Y0208442D01*
X0139699Y0171033D02*
X0097598Y0171033D01*
X0099197Y0172631D02*
X0138101Y0172631D01*
X0136502Y0174230D02*
X0100795Y0174230D01*
D19*
X0092649Y0184583D02*
X0071094Y0170528D01*
X0061149Y0170528D01*
X0058349Y0167728D01*
X0058349Y0029583D01*
X0060349Y0027583D01*
X0081149Y0027583D01*
X0058349Y0025833D02*
X0058349Y0029583D01*
X0043649Y0042083D02*
X0043649Y0087083D01*
X0036149Y0094583D01*
X0036149Y0170135D01*
X0036542Y0170528D01*
X0036542Y0194977D01*
X0038649Y0198333D01*
X0018949Y0198333D02*
X0018649Y0197083D01*
X0011149Y0189583D01*
X0011149Y0079583D01*
X0016149Y0074583D01*
X0026149Y0074583D01*
X0031149Y0069583D01*
X0031149Y0049583D01*
X0018649Y0037083D01*
X0018649Y0027383D01*
X0018949Y0025833D01*
X0038649Y0025833D02*
X0038649Y0037083D01*
X0043649Y0042083D01*
X0056227Y0170528D02*
X0061149Y0170528D01*
D20*
X0038649Y0025833D02*
X0038649Y0015833D01*
X0041149Y0013333D01*
X0093649Y0013333D01*
X0096899Y0016583D01*
X0101149Y0016583D01*
M02*
